<svg viewBox="0 0 128 128" width="128px" height="128px" xmlns="http://www.w3.org/2000/svg" xmlns:xlink="http://www.w3.org/1999/xlink">
  <defs/>
  <g transform="matrix(4.413793, 0, 0, 4.413793, -6.620686, -6.620694)">
    <linearGradient id="linear-gradient" gradientUnits="userSpaceOnUse" x1=".242" x2="21.522" y1="28.2" y2="5.217">
      <stop stop-opacity="1" stop-color="#00b8ed" offset="0"/>
      <stop stop-opacity="1" stop-color="#5a1db3" offset="1"/>
    </linearGradient>
    <linearGradient id="linear-gradient-2" x1="2.644" x2="23.924" y1="30.424" y2="7.442" xlink:href="#linear-gradient"/>
    <linearGradient id="linear-gradient-3" x1="6.373" x2="27.653" y1="33.877" y2="10.895" xlink:href="#linear-gradient"/>
    <linearGradient id="linear-gradient-4" x1="-1.504" x2="19.776" y1="26.584" y2="3.601" xlink:href="#linear-gradient"/>
    <path d="m20.976 8.5h-9.952a2.527 2.527 0 0 0 -2.524 2.524v9.952a2.528 2.528 0 0 0 2.524 2.524h1.3a11.7 11.7 0 0 1 11.176-11.175v-1.3a2.527 2.527 0 0 0 -2.524-2.525zm-8.976 5.6a2.1 2.1 0 1 1 2.1-2.1 2.1 2.1 0 0 1 -2.1 2.1z" fill="url(#linear-gradient)" data-original="url(#linear-gradient)" class=""/>
    <path d="m16 1.5a14.5 14.5 0 1 0 14.5 14.5 14.517 14.517 0 0 0 -14.5-14.5zm8.5 11.3v8.176a3.528 3.528 0 0 1 -3.524 3.524h-9.952a3.528 3.528 0 0 1 -3.524-3.524v-9.952a3.528 3.528 0 0 1 3.524-3.524h9.952a3.528 3.528 0 0 1 3.524 3.524z" fill="url(#linear-gradient-2)" data-original="url(#linear-gradient-2)" class=""/>
    <path d="m13.312 23.5h7.664a2.528 2.528 0 0 0 2.524-2.524v-7.664a10.711 10.711 0 0 0 -10.188 10.188z" fill="url(#linear-gradient-3)" data-original="url(#linear-gradient-3)"/>
    <circle cx="12" cy="12" fill="url(#linear-gradient-4)" r="1.1" data-original="url(#linear-gradient-4)"/>
  </g>
</svg>