<svg viewBox="0 0 128 128" width="128px" height="128px" xmlns="http://www.w3.org/2000/svg">
  <defs>
    <radialGradient id="paint0_radial_2996_8828" cx="0" cy="0" r="1" gradientUnits="userSpaceOnUse" gradientTransform="matrix(-52.044952, 123.888718, -155.164673, -65.183807, 563.688965, 243.562225)">
      <stop offset="0.0598" stop-color="#AE7FE2"/>
      <stop offset="1" stop-color="#0078D4"/>
    </radialGradient>
    <linearGradient id="paint1_linear_2996_8828" x1="13.2917" y1="24.5789" x2="11.0955" y2="19.3382" gradientUnits="userSpaceOnUse" gradientTransform="matrix(4.571428, 0, 0, 4.571428, 498.244415, 209.628738)">
      <stop stop-color="#114A8B"/>
      <stop offset="1" stop-color="#0078D4" stop-opacity="0"/>
    </linearGradient>
    <radialGradient id="paint2_radial_2996_8828" cx="0" cy="0" r="1" gradientUnits="userSpaceOnUse" gradientTransform="matrix(87.882874, -29.785351, 22.888578, 67.533669, 537.464111, 324.096832)">
      <stop offset="0.1107" stop-color="#D59DFF"/>
      <stop offset="1" stop-color="#5E438F"/>
    </radialGradient>
    <linearGradient id="paint3_linear_2996_8828" x1="27.4264" y1="16.2694" x2="23.7685" y2="21.4561" gradientUnits="userSpaceOnUse" gradientTransform="matrix(4.571428, 0, 0, 4.571428, 498.244415, 209.628738)">
      <stop stop-color="#493474"/>
      <stop offset="1" stop-color="#8C66BA" stop-opacity="0"/>
    </linearGradient>
    <radialGradient id="paint4_radial_2996_8828" cx="0" cy="0" r="1" gradientUnits="userSpaceOnUse" gradientTransform="matrix(-105.26165, -37.161446, 36.870014, -104.436157, 638.077576, 284.554443)">
      <stop offset="0.096" stop-color="#50E6FF"/>
      <stop offset="1" stop-color="#436DCD"/>
    </radialGradient>
    <linearGradient id="paint5_linear_2996_8828" x1="11" y1="1.71803" x2="15.9242" y2="1.71803" gradientUnits="userSpaceOnUse" gradientTransform="matrix(4.571428, 0, 0, 4.571428, 498.244415, 209.628738)">
      <stop stop-color="#2D3F80"/>
      <stop offset="1" stop-color="#436DCD" stop-opacity="0"/>
    </linearGradient>
  </defs>
  <title>OfficeCore10_32x_24x_20x_16x_01-22-2019</title>
  <g transform="matrix(0.933225, 0, 0, 0.933225, -469.232697, -199.886749)">
    <path d="M 559.975 216.745 C 560.065 216.681 560.154 216.617 560.245 216.554 C 559.599 216.841 558.963 217.154 558.336 217.493 L 521.764 237.279 C 512.906 242.071 507.387 251.332 507.387 261.403 L 507.387 304.138 C 507.387 314.21 512.907 323.471 521.766 328.263 L 530.63 333.057 L 539.387 333.057 L 575.964 312.737 L 562.728 305.449 C 553.97 300.626 548.53 291.42 548.53 281.422 L 548.53 268.433 C 549.963 265.634 552.884 260.012 553.102 259.914 C 553.319 259.817 565.383 256.826 571.387 255.343 L 571.387 216.745 L 559.975 216.745 Z" fill="url(#paint0_radial_2996_8828)"/>
    <path d="M 559.975 216.745 C 560.065 216.681 560.154 216.617 560.245 216.554 C 559.599 216.841 558.963 217.154 558.336 217.493 L 521.764 237.279 C 512.906 242.071 507.387 251.332 507.387 261.403 L 507.387 304.138 C 507.387 314.21 512.907 323.471 521.766 328.263 L 530.63 333.057 L 539.387 333.057 L 575.964 312.737 L 562.728 305.449 C 553.97 300.626 548.53 291.42 548.53 281.422 L 548.53 268.433 C 549.963 265.634 552.884 260.012 553.102 259.914 C 553.319 259.817 565.383 256.826 571.387 255.343 L 571.387 216.745 L 559.975 216.745 Z" fill="url(#paint1_linear_2996_8828)"/>
    <path d="M 594.244 263.18 L 594.244 281.893 C 594.244 291.965 588.724 301.227 579.865 306.019 L 543.294 325.8 C 535.931 329.783 527.2 330.164 519.576 326.943 C 520.281 327.415 521.011 327.855 521.766 328.264 L 558.338 348.045 C 566.48 352.449 576.294 352.449 584.436 348.045 L 621.008 328.264 C 629.867 323.472 635.387 314.21 635.387 304.138 L 635.387 292.568 L 607.958 269.058 L 594.244 263.18 Z" fill="url(#paint2_radial_2996_8828)"/>
    <path d="M 594.244 263.18 L 594.244 281.893 C 594.244 291.965 588.724 301.227 579.865 306.019 L 543.294 325.8 C 535.931 329.783 527.2 330.164 519.576 326.943 C 520.281 327.415 521.011 327.855 521.766 328.264 L 558.338 348.045 C 566.48 352.449 576.294 352.449 584.436 348.045 L 621.008 328.264 C 629.867 323.472 635.387 314.21 635.387 304.138 L 635.387 292.568 L 607.958 269.058 L 594.244 263.18 Z" fill="url(#paint3_linear_2996_8828)"/>
    <path d="M 621.01 237.279 L 584.439 217.493 C 576.922 213.427 567.981 213.114 560.245 216.554 C 552.954 221.648 548.53 230.02 548.53 239.036 L 548.53 267.696 L 559.017 262.397 C 566.796 258.467 575.979 258.467 583.758 262.397 L 620.329 280.877 C 629.382 285.451 635.157 294.639 635.38 304.747 C 635.385 304.545 635.387 304.341 635.387 304.138 L 635.387 261.403 C 635.387 251.332 629.868 242.071 621.01 237.279 Z" fill="url(#paint4_radial_2996_8828)"/>
    <path d="M 621.01 237.279 L 584.439 217.493 C 576.922 213.427 567.981 213.114 560.245 216.554 C 552.954 221.648 548.53 230.02 548.53 239.036 L 548.53 267.696 L 559.017 262.397 C 566.796 258.467 575.979 258.467 583.758 262.397 L 620.329 280.877 C 629.382 285.451 635.157 294.639 635.38 304.747 C 635.385 304.545 635.387 304.341 635.387 304.138 L 635.387 261.403 C 635.387 251.332 629.868 242.071 621.01 237.279 Z" fill="url(#paint5_linear_2996_8828)"/>
  </g>
</svg>